<?xml version="1.0" encoding="UTF-8"?>
<svg version="1.1" xmlns="http://www.w3.org/2000/svg" width="512" height="512">
<path d="M0 0 C1.45108658 0.00273422 1.45108658 0.00273422 2.93148804 0.00552368 C17.26440977 0.05095174 31.21023917 0.55983928 45.3125 3.3125 C46.65803955 3.55395752 46.65803955 3.55395752 48.03076172 3.80029297 C107.84088904 14.62287989 165.35495829 48.68064457 202.3125 97.3125 C202.72918945 97.85277832 203.14587891 98.39305664 203.57519531 98.94970703 C211.2584873 108.9447116 218.00092968 119.40459036 224.3125 130.3125 C224.70679199 130.98974121 225.10108398 131.66698242 225.50732422 132.36474609 C238.68961173 155.2833756 247.29510918 180.85822563 252.625 206.6875 C252.77243652 207.39817627 252.91987305 208.10885254 253.07177734 208.84106445 C256.05713787 224.48358366 256.6873098 240.11919606 256.625 256 C256.62226578 257.45108658 256.62226578 257.45108658 256.61947632 258.93148804 C256.57404826 273.26440977 256.06516072 287.21023917 253.3125 301.3125 C253.15152832 302.20952637 252.99055664 303.10655273 252.82470703 304.03076172 C242.00212011 363.84088904 207.94435543 421.35495829 159.3125 458.3125 C158.77222168 458.72918945 158.23194336 459.14587891 157.67529297 459.57519531 C147.6802884 467.2584873 137.22040964 474.00092968 126.3125 480.3125 C125.63525879 480.70679199 124.95801758 481.10108398 124.26025391 481.50732422 C101.3416244 494.68961173 75.76677437 503.29510918 49.9375 508.625 C49.22682373 508.77243652 48.51614746 508.91987305 47.78393555 509.07177734 C32.14141634 512.05713787 16.50580394 512.6873098 0.625 512.625 C-0.34239105 512.62317719 -1.3097821 512.62135437 -2.30648804 512.61947632 C-16.63940977 512.57404826 -30.58523917 512.06516072 -44.6875 509.3125 C-45.58452637 509.15152832 -46.48155273 508.99055664 -47.40576172 508.82470703 C-107.21588904 498.00212011 -164.72995829 463.94435543 -201.6875 415.3125 C-202.10418945 414.77222168 -202.52087891 414.23194336 -202.95019531 413.67529297 C-210.6334873 403.6802884 -217.37592968 393.22040964 -223.6875 382.3125 C-224.08179199 381.63525879 -224.47608398 380.95801758 -224.88232422 380.26025391 C-238.06461173 357.3416244 -246.67010918 331.76677437 -252 305.9375 C-252.14743652 305.22682373 -252.29487305 304.51614746 -252.44677734 303.78393555 C-255.43213787 288.14141634 -256.0623098 272.50580394 -256 256.625 C-255.99817719 255.65760895 -255.99635437 254.6902179 -255.99447632 253.69351196 C-255.94904826 239.36059023 -255.44016072 225.41476083 -252.6875 211.3125 C-252.44604248 209.96696045 -252.44604248 209.96696045 -252.19970703 208.59423828 C-241.37712011 148.78411096 -207.31935543 91.27004171 -158.6875 54.3125 C-158.14722168 53.89581055 -157.60694336 53.47912109 -157.05029297 53.04980469 C-147.0552884 45.3665127 -136.59540964 38.62407032 -125.6875 32.3125 C-125.01025879 31.91820801 -124.33301758 31.52391602 -123.63525391 31.11767578 C-100.7166244 17.93538827 -75.14177437 9.32989082 -49.3125 4 C-48.60182373 3.85256348 -47.89114746 3.70512695 -47.15893555 3.55322266 C-31.51641634 0.56786213 -15.88080394 -0.0623098 0 0 Z M-161.50390625 117.5703125 C-197.30923732 158.85279025 -215.70603341 213.83890868 -212.6875 268.3125 C-208.77188908 322.2216206 -186.75761922 370.06165136 -148.6875 408.3125 C-148.12981934 408.87420898 -147.57213867 409.43591797 -146.99755859 410.01464844 C-108.28441793 448.53574843 -53.99711249 469.33443389 0.3125 469.6875 C58.31525783 469.26380947 111.40267912 446.02902823 152.3125 405.3125 C152.87420898 404.75481934 153.43591797 404.19713867 154.01464844 403.62255859 C192.53574843 364.90941793 213.33443389 310.62211249 213.6875 256.3125 C213.26380947 198.30974217 190.02902823 145.22232088 149.3125 104.3125 C148.475979 103.46993652 148.475979 103.46993652 147.62255859 102.61035156 C108.90941793 64.08925157 54.62211249 43.29056611 0.3125 42.9375 C-62.66197805 43.39750727 -119.738861 70.95616614 -161.50390625 117.5703125 Z " fill="#000000" transform="translate(255.6875,-0.3125)"/>
<path d="M0 0 C5.3938601 2.30427357 8.6536963 6.4035822 11.6015625 11.37109375 C12.67175892 14.581683 12.87274386 17.11799506 12.9765625 20.49609375 C13.02554688 21.57117188 13.07453125 22.64625 13.125 23.75390625 C11.78400903 33.02075429 5.1967606 39.34217927 -1.2277832 45.65454102 C-2.10633469 46.53367661 -2.98488617 47.41281219 -3.89006042 48.31858826 C-6.27928554 50.70551917 -8.67697582 53.08327638 -11.07902551 55.45725751 C-13.59531871 57.94838976 -16.10014025 60.4510051 -18.60624695 62.95237732 C-23.3438253 67.6775688 -28.09149831 72.39247874 -32.84296626 77.10369867 C-38.25600704 82.47188761 -43.65756983 87.85156389 -49.05824149 93.23219216 C-60.15899856 104.29124217 -71.27394302 115.33591878 -82.3984375 126.37109375 C-80.99132289 129.56207604 -79.32410406 131.6861965 -76.85075378 134.13237 C-76.1147847 134.86530777 -75.37881561 135.59824554 -74.62054443 136.35339355 C-73.81272522 137.14773804 -73.00490601 137.94208252 -72.17260742 138.76049805 C-71.32203262 139.60493973 -70.47145782 140.44938141 -69.59510803 141.31941223 C-67.26351796 143.63295135 -64.92767876 145.94210775 -62.59054732 148.25004554 C-60.14042872 150.67271656 -57.69758551 153.1026944 -55.25447083 155.53242493 C-46.93483092 163.80383287 -38.60359689 172.06350306 -30.26342773 180.31420898 C-25.65565794 184.87270641 -21.05524308 189.43850178 -16.46243936 194.01207858 C-14.03497263 196.4286563 -11.60378775 198.84121324 -9.16319847 201.24454308 C-6.43702861 203.93212302 -3.72354901 206.63194544 -1.01245117 209.3347168 C-0.21070465 210.11894012 0.59104187 210.90316345 1.41708374 211.71115112 C6.93071145 217.24409755 11.79413075 222.95278709 13.23046875 230.8125 C13.09058084 237.38723162 12.90606177 243.12461265 8.6015625 248.37109375 C3.20462138 253.32281437 -1.13220014 255.51893988 -8.5234375 255.74609375 C-9.59851563 255.79507812 -10.67359375 255.8440625 -11.78125 255.89453125 C-21.73077213 254.45475159 -28.39048456 246.9516323 -35.16308594 240.1081543 C-36.20964281 239.06538761 -37.25705621 238.02347998 -38.30525208 236.98236084 C-41.13035995 234.17113265 -43.94285322 231.34759767 -46.752738 228.5211637 C-49.7055709 225.55440563 -52.6686297 222.59788998 -55.63018799 219.6398468 C-60.59984562 214.6728852 -65.56138567 209.69792723 -70.51806641 204.71801758 C-76.2363026 198.97316826 -81.96687461 193.24085722 -87.70429778 187.51517457 C-93.24021438 181.99006293 -98.76757458 176.45646762 -104.29102325 170.91889381 C-106.63428262 168.56989896 -108.98040246 166.22381822 -111.32891083 163.88007164 C-114.09706994 161.11670921 -116.85760107 158.34593856 -119.61258507 155.56944275 C-120.62058362 154.55591296 -121.63109046 153.54487019 -122.64436531 152.53661537 C-136.93605478 138.30683455 -136.93605478 138.30683455 -137.6484375 127.62109375 C-137.13826246 109.11874579 -113.25877744 93.03264341 -100.984375 80.71875 C-99.90262598 79.63294278 -98.82090651 78.54710612 -97.73921585 77.46124077 C-92.66351189 72.36658451 -87.5854673 67.27427577 -82.50447786 62.18489081 C-76.67109591 56.34170394 -70.84612839 50.49029053 -65.02800214 44.6319142 C-60.5031014 40.07680048 -55.9705006 35.52944071 -51.43212283 30.98775476 C-48.73252742 28.28581965 -46.03627541 25.58074426 -43.34818649 22.86735725 C-40.82386831 20.31965458 -38.29006975 17.78176802 -35.74892235 15.25085449 C-34.38545838 13.88811627 -33.03186792 12.51552112 -31.67869568 11.14256287 C-22.28650421 1.82899649 -13.56621535 -3.55726494 0 0 Z " fill="#000000" transform="translate(307.3984375,128.62890625)"/>
</svg>
